<svg xmlns="http://www.w3.org/2000/svg" viewBox="0 0 64 64">
  <defs>
    <radialGradient id="bg" cx="50%" cy="38%" r="55%">
      <stop offset="0%" stop-color="#FFE16E"/>
      <stop offset="100%" stop-color="#F7B708"/>
    </radialGradient>
  </defs>
  <!-- Face circle -->
  <circle cx="32" cy="32" r="32" fill="url(#bg)"/>
  <!-- Left eyebrow -->
  <path d="M16 20c2-3 6-3 8 0" stroke="#65471B" stroke-width="2" fill="none" stroke-linecap="round"/>
  <!-- Right eyebrow -->
  <path d="M40 20c2-3 6-3 8 0" stroke="#65471B" stroke-width="2" fill="none" stroke-linecap="round"/>
  <!-- Left eye - squinted shut from laughing -->
  <path d="M16 28c3-4 8-4 11 0" stroke="#65471B" stroke-width="2.5" fill="none" stroke-linecap="round"/>
  <path d="M16 28c3 2 8 2 11 0" stroke="#65471B" stroke-width="2.5" fill="none" stroke-linecap="round"/>
  <!-- Right eye - squinted shut from laughing -->
  <path d="M37 28c3-4 8-4 11 0" stroke="#65471B" stroke-width="2.5" fill="none" stroke-linecap="round"/>
  <path d="M37 28c3 2 8 2 11 0" stroke="#65471B" stroke-width="2.5" fill="none" stroke-linecap="round"/>
  <!-- Open mouth -->
  <path d="M18 38c0 0 6 12 14 12s14-12 14-12z" fill="#65471B"/>
  <!-- Teeth top -->
  <path d="M20 38c0 0 5 2 12 2s12-2 12-2v4c0 0-5 1-12 1s-12-1-12-1z" fill="white"/>
  <!-- Tongue -->
  <ellipse cx="32" cy="48" rx="7" ry="4" fill="#E24B4B"/>
</svg>
