<svg xmlns="http://www.w3.org/2000/svg" viewBox="0 0 64 64"><defs><linearGradient id="g" x1="50%" y1="0%" x2="50%" y2="100%"><stop offset="0%" stop-color="#18AFFF"/><stop offset="100%" stop-color="#0062DF"/></linearGradient></defs><circle cx="32" cy="32" r="32" fill="url(#g)"/><path d="M44.5 30.1c.5-.6.8-1.4.8-2.3 0-2-1.6-3.6-3.5-3.6H35c.7-2 1.5-4.6 1.5-6.2 0-2.5-1.5-4-3-4-1.2 0-2 .8-2.2 1.3l-3.3 8.4c-.8 1.2-2.5 2.8-3.5 3.5v15.6c1.5.5 3.5 1.2 6.5 1.2h8c1.6 0 3-1.3 3-2.9 0-.5-.1-.9-.3-1.3.8-.6 1.3-1.5 1.3-2.5 0-.5-.1-1-.4-1.5.6-.5 1-1.4 1-2.3 0-.7-.3-1.4-.7-1.9z" fill="white"/><rect x="14" y="27" width="6" height="18" rx="1.5" fill="white" opacity="0.9"/></svg>
